<?xml version='1.0' encoding='iso-8859-1'?>
<!DOCTYPE svg PUBLIC '-//W3C//DTD SVG 1.1//EN' 'http://www.w3.org/Graphics/SVG/1.1/DTD/svg11.dtd'>
<svg version="1.1" xmlns="http://www.w3.org/2000/svg" viewBox="0 0 436.979 436.979" xmlns:xlink="http://www.w3.org/1999/xlink" enable-background="new 0 0 436.979 436.979">
  <path d="m369.299,85.997c5.523,0 10-4.477 10-10 0-10.2 8.298-18.499 18.499-18.499h7.262c5.523,0 10-4.477 10-10v-37.498c0-5.523-4.477-10-10-10h-316.485c-5.523,0-10,4.477-10,10v37.498c0,5.523 4.477,10 10,10h7.262c10.2,0 18.499,8.298 18.499,18.499 0,5.523 4.477,10 10,10h7.487v134.873c0,28.153-22.904,51.057-51.058,51.057-21.419,0-38.846-17.426-38.846-38.846 0-16.033 13.044-29.077 29.077-29.077 11.724,0 21.261,9.538 21.261,21.261 0,5.523 4.477,10 10,10s10-4.477 10-10c0-22.751-18.51-41.261-41.261-41.261-27.061,0-49.077,22.016-49.077,49.077 0,32.448 26.398,58.846 58.846,58.846 20.025,0 38.129-8.34 51.058-21.712v80.767h-7.487c-5.523,0-10,4.477-10,10 0,10.2-8.298,18.499-18.499,18.499h-7.262c-5.523,0-10,4.477-10,10v37.498c0,5.523 4.477,10 10,10h316.485c5.523,0 10-4.477 10-10v-37.498c0-5.523-4.477-10-10-10h-7.262c-10.2,0-18.499-8.298-18.499-18.499 0-5.523-4.477-10-10-10h-7.487v-264.985h7.487zm-187.681,264.985l160.194-73.232v23.783l-108.176,49.449h-52.018zm65.469-264.985l82.86,37.879-26.001,11.886-108.863-49.765h52.004zm32.806,60.76l-26.013,11.892-102.057-46.657v-23.78l128.07,58.545zm-76.073,34.776l-51.997-23.771v-23.779l78.005,35.661-26.008,11.889zm-51.997-1.78l27.945,12.776-27.945,12.775v-25.551zm0,47.541l189.989-86.852v23.779l-189.989,86.852v-23.779zm0,45.77l189.989-86.852v23.779l-189.989,86.852v-23.779zm0,45.769l189.989-86.852v23.779l-189.989,86.852v-23.779zm143.369-232.836h46.62v21.312l-46.62-21.312zm99.868-65.997v17.498h-296.485v-17.498h296.485zm-31.014,37.498c-1.463,2.659-2.625,5.506-3.43,8.499h-227.597c-0.806-2.992-1.967-5.84-3.43-8.499h234.457zm-265.471,359.481v-17.498h296.485v17.498h-296.485zm31.014-37.498c1.463-2.659 2.625-5.506 3.43-8.499h227.597c0.806,2.992 1.967,5.84 3.43,8.499h-234.457zm152.154-28.499l60.069-27.458v27.458h-60.069z"/>
</svg>
