<?xml version="1.0" encoding="UTF-8" standalone="no"?> <svg height="512" viewBox="0 0 64 64" width="512" xmlns="http://www.w3.org/2000/svg"><path d="m40 27a1 1 0 0 0 1-1v-4a2 2 0 0 0 -2-2h-26a2 2 0 0 0 -2 2v22a2 2 0 0 0 2 2h26a2 2 0 0 0 2-2v-14a1 1 0 0 0 -2 0v4h-5a4 4 0 0 0 -2-3.42 4 4 0 1 0 -6.08 0 4 4 0 0 0 -1.92 3.42h-4v-1.18a3 3 0 0 0 2-2.82v-2a3 3 0 0 0 -6 0v2a3 3 0 0 0 2 2.82v1.18h-5v-12h26v4a1 1 0 0 0 1 1zm-22 1a1 1 0 0 1 2 0v2a1 1 0 0 1 -2 0zm11-2a2 2 0 1 1 -2 2 2 2 0 0 1 2-2zm-1 6h2a2 2 0 0 1 2 2h-6a2 2 0 0 1 2-2zm11 4v8h-26v-8z"/><path d="m52 41h-8a1 1 0 0 0 -1 1v4a1 1 0 0 0 1 1h8a1 1 0 0 0 1-1v-4a1 1 0 0 0 -1-1zm-1 4h-6v-2h6z"/><path d="m44 35h6a1 1 0 0 0 0-2h-6a1 1 0 0 0 0 2z"/><path d="m44 31h2a1 1 0 0 0 0-2h-2a1 1 0 0 0 0 2z"/><path d="m52 25h-8a1 1 0 0 0 0 2h8a1 1 0 0 0 0-2z"/><path d="m44 23h4a1 1 0 0 0 0-2h-4a1 1 0 0 0 0 2z"/><path d="m52 37h-8a1 1 0 0 0 0 2h8a1 1 0 0 0 0-2z"/><path d="m16 42a1 1 0 0 0 1-1v-2a1 1 0 0 0 -2 0v2a1 1 0 0 0 1 1z"/><path d="m19 42a1 1 0 0 0 1-1v-2a1 1 0 0 0 -2 0v2a1 1 0 0 0 1 1z"/><path d="m22 41h14a1 1 0 0 0 0-2h-14a1 1 0 0 0 0 2z"/><path d="m13 48a1 1 0 0 0 0 2h8a1 1 0 0 0 0-2z"/><path d="m25 48a1 1 0 0 0 0 2h7a1 1 0 0 0 0-2z"/><path d="m24.51 7.51a12 12 0 0 1 17 0 1 1 0 0 0 .7.3 1 1 0 0 0 .69-1.71 14 14 0 0 0 -19.8 0 1 1 0 0 0 0 1.41 1 1 0 0 0 1.41 0z"/><path d="m39.36 10.64a1 1 0 0 0 .71-.3 1 1 0 0 0 0-1.41 10 10 0 0 0 -14.14 0 1 1 0 1 0 1.41 1.41 8 8 0 0 1 11.32 0 1 1 0 0 0 .7.3z"/><path d="m28.76 11.76a1 1 0 0 0 1.41 1.41 4.1 4.1 0 0 1 5.66 0 1 1 0 0 0 1.41 0 1 1 0 0 0 0-1.41 6 6 0 0 0 -8.48 0z"/><path d="m61 52h-52v-12a1 1 0 0 0 -2 0v12h-4a1 1 0 0 0 -1 1v2a7 7 0 0 0 7 7h31a1 1 0 0 0 0-2h-31a5 5 0 0 1 -5-5v-1h56v1a5 5 0 0 1 -5 5h-11a1 1 0 0 0 0 2h11a7 7 0 0 0 7-7v-2a1 1 0 0 0 -1-1z"/><path d="m8 37a1 1 0 0 0 1-1v-15a3 3 0 0 1 3-3h40a3 3 0 0 1 3 3v28a1 1 0 0 0 2 0v-28a5 5 0 0 0 -5-5h-18v-1a1 1 0 0 0 -2 0v1h-20a5 5 0 0 0 -5 5v15a1 1 0 0 0 1 1z"/><circle cx="11" cy="57" r="1"/><circle cx="15" cy="57" r="1"/><circle cx="49" cy="57" r="1"/><circle cx="53" cy="57" r="1"/><path d="m24 56a1 1 0 0 0 0 2h16a1 1 0 0 0 0-2z"/></svg>