<svg xmlns="http://www.w3.org/2000/svg" xmlns:xlink="http://www.w3.org/1999/xlink" version="1.1" x="0px" y="0px" viewBox="0 0 96 120" style="enable-background:new 0 0 96 96;" xml:space="preserve"><g><g><path d="M48,66c7.2,0,13-5.8,13-13s-5.8-13-13-13s-13,5.8-13,13S40.8,66,48,66z M48,46c3.9,0,7,3.1,7,7s-3.1,7-7,7s-7-3.1-7-7    S44.1,46,48,46z"/><path d="M72,82.2c0-7.9-6.2-14.5-14-15.1l-1.3-0.1l-1,0.9c-2.1,2-4.8,3.1-7.7,3.1s-5.6-1.1-7.7-3.1l-1-0.9L38,67    c-7.9,0.6-14,7.2-14,15.1V93h48V82.2z M66,87H30v-4.8c0-4.4,3.1-8.1,7.3-9c3,2.5,6.8,3.8,10.7,3.8s7.7-1.3,10.7-3.8    c4.2,0.9,7.3,4.6,7.3,9V87z"/><path d="M63,57c0,6.1,4.9,11,11,11s11-4.9,11-11s-4.9-11-11-11S63,50.9,63,57z M79,57c0,2.8-2.2,5-5,5s-5-2.2-5-5s2.2-5,5-5    S79,54.2,79,57z"/><path d="M82,69h-2.3l-0.9,0.9C77.5,71.3,76,72,74,72v6c3.2,0,5.9-1,8.2-3c2.7,0.1,4.8,2.3,4.8,5v3H74v6h19v-9    C93,73.9,88.1,69,82,69z"/><path d="M22,83H9v-3c0-2.7,2.1-4.9,4.8-5c2.3,2,5.1,3,8.2,3v-6c-2,0-3.5-0.7-4.8-2.1L16.3,69H14C7.9,69,3,73.9,3,80v9h19V83z"/><path d="M8,41h4.3l4,6.6C13.1,49.6,11,53,11,57c0,6.1,4.9,11,11,11s11-4.9,11-11s-4.9-11-11-11c-1.2,0-2.3,0.2-3.4,0.5l2.6-5.5H26    c2.8,0,5-2.2,5-5v-9c0-2.8-2.2-5-5-5H8c-2.8,0-5,2.2-5,5v9C3,38.8,5.2,41,8,41z M27,57c0,2.8-2.2,5-5,5s-5-2.2-5-5s2.2-5,5-5    S27,54.2,27,57z M9,28h16v7h-7.5l-0.8,1.7l-1-1.7H9V28z"/><path d="M38,34h16l4.6,10.7L64.7,34H73c2.8,0,5-2.2,5-5V7c0-2.8-2.2-5-5-5H38c-2.8,0-5,2.2-5,5v22C33,31.8,35.2,34,38,34z M39,8    h33v20H61.3l-1.9,3.3L58,28H39V8z"/><rect x="44" y="11" width="22" height="6"/><rect x="44" y="19" width="14" height="6"/></g></g><text x="0" y="111" fill="#000000" font-size="5px" font-weight="bold" font-family="'Helvetica Neue', Helvetica, Arial-Unicode, Arial, Sans-serif">Created by Drishya</text><text x="0" y="116" fill="#000000" font-size="5px" font-weight="bold" font-family="'Helvetica Neue', Helvetica, Arial-Unicode, Arial, Sans-serif">from the Noun Project</text></svg>